<svg xmlns="http://www.w3.org/2000/svg" width="12.661" height="17.381" viewBox="0 0 12.661 17.381">
  <g id="Calque_2" data-name="Calque 2" transform="translate(650.461 304.757)">
    <g id="Calque_1" data-name="Calque 1" transform="translate(-650.001 -304.208)">
      <path id="Tracé_26" data-name="Tracé 26" d="M9.873,17.163a.832.832,0,0,1-.642-.3,36.715,36.715,0,0,1-3.188-4.458A11.832,11.832,0,0,1,4,6.708,5.837,5.837,0,0,1,14.018,2.556,5.837,5.837,0,0,1,15.74,6.708c0,3.458-3.648,8.252-5.224,10.156A.839.839,0,0,1,9.873,17.163ZM9.837,4.592A2.1,2.1,0,1,0,11.96,6.708h0A2.1,2.1,0,0,0,9.837,4.592Z" transform="translate(-3.999 -0.792)" fill="rgba(0,0,0,0)" stroke="#fff" stroke-width="0.92"/>
    </g>
  </g>
</svg>
